<svg xmlns="http://www.w3.org/2000/svg" version="1.1" xmlns:xlink="http://www.w3.org/1999/xlink" xmlns:svgjs="http://svgjs.dev/svgjs" width="1920" height="1080" preserveAspectRatio="none" viewBox="0 0 1920 1080"><g mask="url(&quot;#SvgjsMask1008&quot;)" fill="none"><rect width="1920" height="1080" x="0" y="0" fill="#0e2a47"></rect><path d="M52.72 -33.04L117.67 4.46L117.67 79.46L52.72 116.96L-12.23 79.46L-12.23 4.46zM117.67 979.46L182.63 1016.96L182.63 1091.96L117.67 1129.46L52.72 1091.96L52.72 1016.96zM247.58 79.46L312.53 116.96L312.53 191.96L247.58 229.46L182.63 191.96L182.63 116.96zM182.63 416.96L247.58 454.46L247.58 529.46L182.63 566.96L117.67 529.46L117.67 454.46zM182.63 866.96L247.58 904.46L247.58 979.46L182.63 1016.96L117.67 979.46L117.67 904.46zM182.63 1091.96L247.58 1129.46L247.58 1204.46L182.63 1241.96L117.67 1204.46L117.67 1129.46zM377.49 79.46L442.44 116.96L442.44 191.96L377.49 229.46L312.53 191.96L312.53 116.96zM312.53 416.96L377.49 454.46L377.49 529.46L312.53 566.96L247.58 529.46L247.58 454.46zM312.53 641.96L377.49 679.46L377.49 754.46L312.53 791.96L247.58 754.46L247.58 679.46zM377.49 754.46L442.44 791.96L442.44 866.96L377.49 904.46L312.53 866.96L312.53 791.96zM312.53 866.96L377.49 904.46L377.49 979.46L312.53 1016.96L247.58 979.46L247.58 904.46zM442.44 641.96L507.4 679.46L507.4 754.46L442.44 791.96L377.49 754.46L377.49 679.46zM507.4 754.46L572.35 791.96L572.35 866.96L507.4 904.46L442.44 866.96L442.44 791.96zM702.26 191.96L767.21 229.46L767.21 304.46L702.26 341.96L637.3 304.46L637.3 229.46zM767.21 304.46L832.17 341.96L832.17 416.96L767.21 454.46L702.26 416.96L702.26 341.96zM702.26 416.96L767.21 454.46L767.21 529.46L702.26 566.96L637.3 529.46L637.3 454.46zM767.21 529.46L832.17 566.96L832.17 641.96L767.21 679.46L702.26 641.96L702.26 566.96zM702.26 641.96L767.21 679.46L767.21 754.46L702.26 791.96L637.3 754.46L637.3 679.46zM702.26 866.96L767.21 904.46L767.21 979.46L702.26 1016.96L637.3 979.46L637.3 904.46zM767.21 979.46L832.17 1016.96L832.17 1091.96L767.21 1129.46L702.26 1091.96L702.26 1016.96zM897.12 529.46L962.07 566.96L962.07 641.96L897.12 679.46L832.16 641.96L832.16 566.96zM897.12 979.46L962.07 1016.96L962.07 1091.96L897.12 1129.46L832.16 1091.96L832.16 1016.96zM962.07 -33.04L1027.03 4.46L1027.03 79.46L962.07 116.96L897.12 79.46L897.12 4.46zM1027.03 79.46L1091.98 116.96L1091.98 191.96L1027.03 229.46L962.07 191.96L962.07 116.96zM962.07 416.96L1027.03 454.46L1027.03 529.46L962.07 566.96L897.12 529.46L897.12 454.46zM1027.03 529.46L1091.98 566.96L1091.98 641.96L1027.03 679.46L962.07 641.96L962.07 566.96zM962.07 866.96L1027.03 904.46L1027.03 979.46L962.07 1016.96L897.12 979.46L897.12 904.46zM1156.93 79.46L1221.89 116.96L1221.89 191.96L1156.93 229.46L1091.98 191.96L1091.98 116.96zM1221.89 -33.04L1286.84 4.46L1286.84 79.46L1221.89 116.96L1156.93 79.46L1156.93 4.46zM1221.89 416.96L1286.84 454.46L1286.84 529.46L1221.89 566.96L1156.93 529.46L1156.93 454.46zM1221.89 641.96L1286.84 679.46L1286.84 754.46L1221.89 791.96L1156.93 754.46L1156.93 679.46zM1221.89 866.96L1286.84 904.46L1286.84 979.46L1221.89 1016.96L1156.93 979.46L1156.93 904.46zM1286.84 979.46L1351.79 1016.96L1351.79 1091.96L1286.84 1129.46L1221.89 1091.96L1221.89 1016.96zM1351.8 191.96L1416.75 229.46L1416.75 304.46L1351.8 341.96L1286.84 304.46L1286.84 229.46zM1416.75 304.46L1481.7 341.96L1481.7 416.96L1416.75 454.46L1351.8 416.96L1351.8 341.96zM1416.75 979.46L1481.7 1016.96L1481.7 1091.96L1416.75 1129.46L1351.8 1091.96L1351.8 1016.96zM1611.61 -33.04L1676.56 4.46L1676.56 79.46L1611.61 116.96L1546.66 79.46L1546.66 4.46zM1611.61 866.96L1676.56 904.46L1676.56 979.46L1611.61 1016.96L1546.66 979.46L1546.66 904.46zM1741.52 416.96L1806.47 454.46L1806.47 529.46L1741.52 566.96L1676.56 529.46L1676.56 454.46zM1936.38 754.46L2001.33 791.96L2001.33 866.96L1936.38 904.46L1871.42 866.96L1871.42 791.96z" stroke="#03305d" stroke-width="2"></path><path d="M45.22 -33.04 a7.5 7.5 0 1 0 15 0 a7.5 7.5 0 1 0 -15 0zM110.17 4.46 a7.5 7.5 0 1 0 15 0 a7.5 7.5 0 1 0 -15 0zM110.17 79.46 a7.5 7.5 0 1 0 15 0 a7.5 7.5 0 1 0 -15 0zM45.22 116.96 a7.5 7.5 0 1 0 15 0 a7.5 7.5 0 1 0 -15 0zM-19.73 79.46 a7.5 7.5 0 1 0 15 0 a7.5 7.5 0 1 0 -15 0zM-19.73 4.46 a7.5 7.5 0 1 0 15 0 a7.5 7.5 0 1 0 -15 0zM110.17 979.46 a7.5 7.5 0 1 0 15 0 a7.5 7.5 0 1 0 -15 0zM175.13 1016.96 a7.5 7.5 0 1 0 15 0 a7.5 7.5 0 1 0 -15 0zM175.13 1091.96 a7.5 7.5 0 1 0 15 0 a7.5 7.5 0 1 0 -15 0zM110.17 1129.46 a7.5 7.5 0 1 0 15 0 a7.5 7.5 0 1 0 -15 0zM45.22 1091.96 a7.5 7.5 0 1 0 15 0 a7.5 7.5 0 1 0 -15 0zM45.22 1016.96 a7.5 7.5 0 1 0 15 0 a7.5 7.5 0 1 0 -15 0zM240.08 79.46 a7.5 7.5 0 1 0 15 0 a7.5 7.5 0 1 0 -15 0zM305.03 116.96 a7.5 7.5 0 1 0 15 0 a7.5 7.5 0 1 0 -15 0zM305.03 191.96 a7.5 7.5 0 1 0 15 0 a7.5 7.5 0 1 0 -15 0zM240.08 229.46 a7.5 7.5 0 1 0 15 0 a7.5 7.5 0 1 0 -15 0zM175.13 191.96 a7.5 7.5 0 1 0 15 0 a7.5 7.5 0 1 0 -15 0zM175.13 116.96 a7.5 7.5 0 1 0 15 0 a7.5 7.5 0 1 0 -15 0zM175.13 416.96 a7.5 7.5 0 1 0 15 0 a7.5 7.5 0 1 0 -15 0zM240.08 454.46 a7.5 7.5 0 1 0 15 0 a7.5 7.5 0 1 0 -15 0zM240.08 529.46 a7.5 7.5 0 1 0 15 0 a7.5 7.5 0 1 0 -15 0zM175.13 566.96 a7.5 7.5 0 1 0 15 0 a7.5 7.5 0 1 0 -15 0zM110.17 529.46 a7.5 7.5 0 1 0 15 0 a7.5 7.5 0 1 0 -15 0zM110.17 454.46 a7.5 7.5 0 1 0 15 0 a7.5 7.5 0 1 0 -15 0zM175.13 866.96 a7.5 7.5 0 1 0 15 0 a7.5 7.5 0 1 0 -15 0zM240.08 904.46 a7.5 7.5 0 1 0 15 0 a7.5 7.5 0 1 0 -15 0zM240.08 979.46 a7.5 7.5 0 1 0 15 0 a7.5 7.5 0 1 0 -15 0zM110.17 904.46 a7.5 7.5 0 1 0 15 0 a7.5 7.5 0 1 0 -15 0zM240.08 1129.46 a7.5 7.5 0 1 0 15 0 a7.5 7.5 0 1 0 -15 0zM240.08 1204.46 a7.5 7.5 0 1 0 15 0 a7.5 7.5 0 1 0 -15 0zM175.13 1241.96 a7.5 7.5 0 1 0 15 0 a7.5 7.5 0 1 0 -15 0zM110.17 1204.46 a7.5 7.5 0 1 0 15 0 a7.5 7.5 0 1 0 -15 0zM369.99 79.46 a7.5 7.5 0 1 0 15 0 a7.5 7.5 0 1 0 -15 0zM434.94 116.96 a7.5 7.5 0 1 0 15 0 a7.5 7.5 0 1 0 -15 0zM434.94 191.96 a7.5 7.5 0 1 0 15 0 a7.5 7.5 0 1 0 -15 0zM369.99 229.46 a7.5 7.5 0 1 0 15 0 a7.5 7.5 0 1 0 -15 0zM305.03 416.96 a7.5 7.5 0 1 0 15 0 a7.5 7.5 0 1 0 -15 0zM369.99 454.46 a7.5 7.5 0 1 0 15 0 a7.5 7.5 0 1 0 -15 0zM369.99 529.46 a7.5 7.5 0 1 0 15 0 a7.5 7.5 0 1 0 -15 0zM305.03 566.96 a7.5 7.5 0 1 0 15 0 a7.5 7.5 0 1 0 -15 0zM305.03 641.96 a7.5 7.5 0 1 0 15 0 a7.5 7.5 0 1 0 -15 0zM369.99 679.46 a7.5 7.5 0 1 0 15 0 a7.5 7.5 0 1 0 -15 0zM369.99 754.46 a7.5 7.5 0 1 0 15 0 a7.5 7.5 0 1 0 -15 0zM305.03 791.96 a7.5 7.5 0 1 0 15 0 a7.5 7.5 0 1 0 -15 0zM240.08 754.46 a7.5 7.5 0 1 0 15 0 a7.5 7.5 0 1 0 -15 0zM240.08 679.46 a7.5 7.5 0 1 0 15 0 a7.5 7.5 0 1 0 -15 0zM434.94 791.96 a7.5 7.5 0 1 0 15 0 a7.5 7.5 0 1 0 -15 0zM434.94 866.96 a7.5 7.5 0 1 0 15 0 a7.5 7.5 0 1 0 -15 0zM369.99 904.46 a7.5 7.5 0 1 0 15 0 a7.5 7.5 0 1 0 -15 0zM305.03 866.96 a7.5 7.5 0 1 0 15 0 a7.5 7.5 0 1 0 -15 0zM369.99 979.46 a7.5 7.5 0 1 0 15 0 a7.5 7.5 0 1 0 -15 0zM305.03 1016.96 a7.5 7.5 0 1 0 15 0 a7.5 7.5 0 1 0 -15 0zM434.94 641.96 a7.5 7.5 0 1 0 15 0 a7.5 7.5 0 1 0 -15 0zM499.9 679.46 a7.5 7.5 0 1 0 15 0 a7.5 7.5 0 1 0 -15 0zM499.9 754.46 a7.5 7.5 0 1 0 15 0 a7.5 7.5 0 1 0 -15 0zM564.85 791.96 a7.5 7.5 0 1 0 15 0 a7.5 7.5 0 1 0 -15 0zM564.85 866.96 a7.5 7.5 0 1 0 15 0 a7.5 7.5 0 1 0 -15 0zM499.9 904.46 a7.5 7.5 0 1 0 15 0 a7.5 7.5 0 1 0 -15 0zM694.76 191.96 a7.5 7.5 0 1 0 15 0 a7.5 7.5 0 1 0 -15 0zM759.71 229.46 a7.5 7.5 0 1 0 15 0 a7.5 7.5 0 1 0 -15 0zM759.71 304.46 a7.5 7.5 0 1 0 15 0 a7.5 7.5 0 1 0 -15 0zM694.76 341.96 a7.5 7.5 0 1 0 15 0 a7.5 7.5 0 1 0 -15 0zM629.8 304.46 a7.5 7.5 0 1 0 15 0 a7.5 7.5 0 1 0 -15 0zM629.8 229.46 a7.5 7.5 0 1 0 15 0 a7.5 7.5 0 1 0 -15 0zM824.67 341.96 a7.5 7.5 0 1 0 15 0 a7.5 7.5 0 1 0 -15 0zM824.67 416.96 a7.5 7.5 0 1 0 15 0 a7.5 7.5 0 1 0 -15 0zM759.71 454.46 a7.5 7.5 0 1 0 15 0 a7.5 7.5 0 1 0 -15 0zM694.76 416.96 a7.5 7.5 0 1 0 15 0 a7.5 7.5 0 1 0 -15 0zM759.71 529.46 a7.5 7.5 0 1 0 15 0 a7.5 7.5 0 1 0 -15 0zM694.76 566.96 a7.5 7.5 0 1 0 15 0 a7.5 7.5 0 1 0 -15 0zM629.8 529.46 a7.5 7.5 0 1 0 15 0 a7.5 7.5 0 1 0 -15 0zM629.8 454.46 a7.5 7.5 0 1 0 15 0 a7.5 7.5 0 1 0 -15 0zM824.67 566.96 a7.5 7.5 0 1 0 15 0 a7.5 7.5 0 1 0 -15 0zM824.67 641.96 a7.5 7.5 0 1 0 15 0 a7.5 7.5 0 1 0 -15 0zM759.71 679.46 a7.5 7.5 0 1 0 15 0 a7.5 7.5 0 1 0 -15 0zM694.76 641.96 a7.5 7.5 0 1 0 15 0 a7.5 7.5 0 1 0 -15 0zM759.71 754.46 a7.5 7.5 0 1 0 15 0 a7.5 7.5 0 1 0 -15 0zM694.76 791.96 a7.5 7.5 0 1 0 15 0 a7.5 7.5 0 1 0 -15 0zM629.8 754.46 a7.5 7.5 0 1 0 15 0 a7.5 7.5 0 1 0 -15 0zM629.8 679.46 a7.5 7.5 0 1 0 15 0 a7.5 7.5 0 1 0 -15 0zM694.76 866.96 a7.5 7.5 0 1 0 15 0 a7.5 7.5 0 1 0 -15 0zM759.71 904.46 a7.5 7.5 0 1 0 15 0 a7.5 7.5 0 1 0 -15 0zM759.71 979.46 a7.5 7.5 0 1 0 15 0 a7.5 7.5 0 1 0 -15 0zM694.76 1016.96 a7.5 7.5 0 1 0 15 0 a7.5 7.5 0 1 0 -15 0zM629.8 979.46 a7.5 7.5 0 1 0 15 0 a7.5 7.5 0 1 0 -15 0zM629.8 904.46 a7.5 7.5 0 1 0 15 0 a7.5 7.5 0 1 0 -15 0zM824.67 1016.96 a7.5 7.5 0 1 0 15 0 a7.5 7.5 0 1 0 -15 0zM824.67 1091.96 a7.5 7.5 0 1 0 15 0 a7.5 7.5 0 1 0 -15 0zM759.71 1129.46 a7.5 7.5 0 1 0 15 0 a7.5 7.5 0 1 0 -15 0zM694.76 1091.96 a7.5 7.5 0 1 0 15 0 a7.5 7.5 0 1 0 -15 0zM889.62 529.46 a7.5 7.5 0 1 0 15 0 a7.5 7.5 0 1 0 -15 0zM954.57 566.96 a7.5 7.5 0 1 0 15 0 a7.5 7.5 0 1 0 -15 0zM954.57 641.96 a7.5 7.5 0 1 0 15 0 a7.5 7.5 0 1 0 -15 0zM889.62 679.46 a7.5 7.5 0 1 0 15 0 a7.5 7.5 0 1 0 -15 0zM824.66 641.96 a7.5 7.5 0 1 0 15 0 a7.5 7.5 0 1 0 -15 0zM824.66 566.96 a7.5 7.5 0 1 0 15 0 a7.5 7.5 0 1 0 -15 0zM889.62 979.46 a7.5 7.5 0 1 0 15 0 a7.5 7.5 0 1 0 -15 0zM954.57 1016.96 a7.5 7.5 0 1 0 15 0 a7.5 7.5 0 1 0 -15 0zM954.57 1091.96 a7.5 7.5 0 1 0 15 0 a7.5 7.5 0 1 0 -15 0zM889.62 1129.46 a7.5 7.5 0 1 0 15 0 a7.5 7.5 0 1 0 -15 0zM824.66 1091.96 a7.5 7.5 0 1 0 15 0 a7.5 7.5 0 1 0 -15 0zM824.66 1016.96 a7.5 7.5 0 1 0 15 0 a7.5 7.5 0 1 0 -15 0zM954.57 -33.04 a7.5 7.5 0 1 0 15 0 a7.5 7.5 0 1 0 -15 0zM1019.53 4.46 a7.5 7.5 0 1 0 15 0 a7.5 7.5 0 1 0 -15 0zM1019.53 79.46 a7.5 7.5 0 1 0 15 0 a7.5 7.5 0 1 0 -15 0zM954.57 116.96 a7.5 7.5 0 1 0 15 0 a7.5 7.5 0 1 0 -15 0zM889.62 79.46 a7.5 7.5 0 1 0 15 0 a7.5 7.5 0 1 0 -15 0zM889.62 4.46 a7.5 7.5 0 1 0 15 0 a7.5 7.5 0 1 0 -15 0zM1084.48 116.96 a7.5 7.5 0 1 0 15 0 a7.5 7.5 0 1 0 -15 0zM1084.48 191.96 a7.5 7.5 0 1 0 15 0 a7.5 7.5 0 1 0 -15 0zM1019.53 229.46 a7.5 7.5 0 1 0 15 0 a7.5 7.5 0 1 0 -15 0zM954.57 191.96 a7.5 7.5 0 1 0 15 0 a7.5 7.5 0 1 0 -15 0zM954.57 416.96 a7.5 7.5 0 1 0 15 0 a7.5 7.5 0 1 0 -15 0zM1019.53 454.46 a7.5 7.5 0 1 0 15 0 a7.5 7.5 0 1 0 -15 0zM1019.53 529.46 a7.5 7.5 0 1 0 15 0 a7.5 7.5 0 1 0 -15 0zM889.62 454.46 a7.5 7.5 0 1 0 15 0 a7.5 7.5 0 1 0 -15 0zM1084.48 566.96 a7.5 7.5 0 1 0 15 0 a7.5 7.5 0 1 0 -15 0zM1084.48 641.96 a7.5 7.5 0 1 0 15 0 a7.5 7.5 0 1 0 -15 0zM1019.53 679.46 a7.5 7.5 0 1 0 15 0 a7.5 7.5 0 1 0 -15 0zM954.57 866.96 a7.5 7.5 0 1 0 15 0 a7.5 7.5 0 1 0 -15 0zM1019.53 904.46 a7.5 7.5 0 1 0 15 0 a7.5 7.5 0 1 0 -15 0zM1019.53 979.46 a7.5 7.5 0 1 0 15 0 a7.5 7.5 0 1 0 -15 0zM889.62 904.46 a7.5 7.5 0 1 0 15 0 a7.5 7.5 0 1 0 -15 0zM1149.43 79.46 a7.5 7.5 0 1 0 15 0 a7.5 7.5 0 1 0 -15 0zM1214.39 116.96 a7.5 7.5 0 1 0 15 0 a7.5 7.5 0 1 0 -15 0zM1214.39 191.96 a7.5 7.5 0 1 0 15 0 a7.5 7.5 0 1 0 -15 0zM1149.43 229.46 a7.5 7.5 0 1 0 15 0 a7.5 7.5 0 1 0 -15 0zM1214.39 -33.04 a7.5 7.5 0 1 0 15 0 a7.5 7.5 0 1 0 -15 0zM1279.34 4.46 a7.5 7.5 0 1 0 15 0 a7.5 7.5 0 1 0 -15 0zM1279.34 79.46 a7.5 7.5 0 1 0 15 0 a7.5 7.5 0 1 0 -15 0zM1149.43 4.46 a7.5 7.5 0 1 0 15 0 a7.5 7.5 0 1 0 -15 0zM1214.39 416.96 a7.5 7.5 0 1 0 15 0 a7.5 7.5 0 1 0 -15 0zM1279.34 454.46 a7.5 7.5 0 1 0 15 0 a7.5 7.5 0 1 0 -15 0zM1279.34 529.46 a7.5 7.5 0 1 0 15 0 a7.5 7.5 0 1 0 -15 0zM1214.39 566.96 a7.5 7.5 0 1 0 15 0 a7.5 7.5 0 1 0 -15 0zM1149.43 529.46 a7.5 7.5 0 1 0 15 0 a7.5 7.5 0 1 0 -15 0zM1149.43 454.46 a7.5 7.5 0 1 0 15 0 a7.5 7.5 0 1 0 -15 0zM1214.39 641.96 a7.5 7.5 0 1 0 15 0 a7.5 7.5 0 1 0 -15 0zM1279.34 679.46 a7.5 7.5 0 1 0 15 0 a7.5 7.5 0 1 0 -15 0zM1279.34 754.46 a7.5 7.5 0 1 0 15 0 a7.5 7.5 0 1 0 -15 0zM1214.39 791.96 a7.5 7.5 0 1 0 15 0 a7.5 7.5 0 1 0 -15 0zM1149.43 754.46 a7.5 7.5 0 1 0 15 0 a7.5 7.5 0 1 0 -15 0zM1149.43 679.46 a7.5 7.5 0 1 0 15 0 a7.5 7.5 0 1 0 -15 0zM1214.39 866.96 a7.5 7.5 0 1 0 15 0 a7.5 7.5 0 1 0 -15 0zM1279.34 904.46 a7.5 7.5 0 1 0 15 0 a7.5 7.5 0 1 0 -15 0zM1279.34 979.46 a7.5 7.5 0 1 0 15 0 a7.5 7.5 0 1 0 -15 0zM1214.39 1016.96 a7.5 7.5 0 1 0 15 0 a7.5 7.5 0 1 0 -15 0zM1149.43 979.46 a7.5 7.5 0 1 0 15 0 a7.5 7.5 0 1 0 -15 0zM1149.43 904.46 a7.5 7.5 0 1 0 15 0 a7.5 7.5 0 1 0 -15 0zM1344.29 1016.96 a7.5 7.5 0 1 0 15 0 a7.5 7.5 0 1 0 -15 0zM1344.29 1091.96 a7.5 7.5 0 1 0 15 0 a7.5 7.5 0 1 0 -15 0zM1279.34 1129.46 a7.5 7.5 0 1 0 15 0 a7.5 7.5 0 1 0 -15 0zM1214.39 1091.96 a7.5 7.5 0 1 0 15 0 a7.5 7.5 0 1 0 -15 0zM1344.3 191.96 a7.5 7.5 0 1 0 15 0 a7.5 7.5 0 1 0 -15 0zM1409.25 229.46 a7.5 7.5 0 1 0 15 0 a7.5 7.5 0 1 0 -15 0zM1409.25 304.46 a7.5 7.5 0 1 0 15 0 a7.5 7.5 0 1 0 -15 0zM1344.3 341.96 a7.5 7.5 0 1 0 15 0 a7.5 7.5 0 1 0 -15 0zM1279.34 304.46 a7.5 7.5 0 1 0 15 0 a7.5 7.5 0 1 0 -15 0zM1279.34 229.46 a7.5 7.5 0 1 0 15 0 a7.5 7.5 0 1 0 -15 0zM1474.2 341.96 a7.5 7.5 0 1 0 15 0 a7.5 7.5 0 1 0 -15 0zM1474.2 416.96 a7.5 7.5 0 1 0 15 0 a7.5 7.5 0 1 0 -15 0zM1409.25 454.46 a7.5 7.5 0 1 0 15 0 a7.5 7.5 0 1 0 -15 0zM1344.3 416.96 a7.5 7.5 0 1 0 15 0 a7.5 7.5 0 1 0 -15 0zM1409.25 979.46 a7.5 7.5 0 1 0 15 0 a7.5 7.5 0 1 0 -15 0zM1474.2 1016.96 a7.5 7.5 0 1 0 15 0 a7.5 7.5 0 1 0 -15 0zM1474.2 1091.96 a7.5 7.5 0 1 0 15 0 a7.5 7.5 0 1 0 -15 0zM1409.25 1129.46 a7.5 7.5 0 1 0 15 0 a7.5 7.5 0 1 0 -15 0zM1344.3 1091.96 a7.5 7.5 0 1 0 15 0 a7.5 7.5 0 1 0 -15 0zM1344.3 1016.96 a7.5 7.5 0 1 0 15 0 a7.5 7.5 0 1 0 -15 0zM1604.11 -33.04 a7.5 7.5 0 1 0 15 0 a7.5 7.5 0 1 0 -15 0zM1669.06 4.46 a7.5 7.5 0 1 0 15 0 a7.5 7.5 0 1 0 -15 0zM1669.06 79.46 a7.5 7.5 0 1 0 15 0 a7.5 7.5 0 1 0 -15 0zM1604.11 116.96 a7.5 7.5 0 1 0 15 0 a7.5 7.5 0 1 0 -15 0zM1539.16 79.46 a7.5 7.5 0 1 0 15 0 a7.5 7.5 0 1 0 -15 0zM1539.16 4.46 a7.5 7.5 0 1 0 15 0 a7.5 7.5 0 1 0 -15 0zM1604.11 866.96 a7.5 7.5 0 1 0 15 0 a7.5 7.5 0 1 0 -15 0zM1669.06 904.46 a7.5 7.5 0 1 0 15 0 a7.5 7.5 0 1 0 -15 0zM1669.06 979.46 a7.5 7.5 0 1 0 15 0 a7.5 7.5 0 1 0 -15 0zM1604.11 1016.96 a7.5 7.5 0 1 0 15 0 a7.5 7.5 0 1 0 -15 0zM1539.16 979.46 a7.5 7.5 0 1 0 15 0 a7.5 7.5 0 1 0 -15 0zM1539.16 904.46 a7.5 7.5 0 1 0 15 0 a7.5 7.5 0 1 0 -15 0zM1734.02 416.96 a7.5 7.5 0 1 0 15 0 a7.5 7.5 0 1 0 -15 0zM1798.97 454.46 a7.5 7.5 0 1 0 15 0 a7.5 7.5 0 1 0 -15 0zM1798.97 529.46 a7.5 7.5 0 1 0 15 0 a7.5 7.5 0 1 0 -15 0zM1734.02 566.96 a7.5 7.5 0 1 0 15 0 a7.5 7.5 0 1 0 -15 0zM1669.06 529.46 a7.5 7.5 0 1 0 15 0 a7.5 7.5 0 1 0 -15 0zM1669.06 454.46 a7.5 7.5 0 1 0 15 0 a7.5 7.5 0 1 0 -15 0zM1928.88 754.46 a7.5 7.5 0 1 0 15 0 a7.5 7.5 0 1 0 -15 0zM1993.83 791.96 a7.5 7.5 0 1 0 15 0 a7.5 7.5 0 1 0 -15 0zM1993.83 866.96 a7.5 7.5 0 1 0 15 0 a7.5 7.5 0 1 0 -15 0zM1928.88 904.46 a7.5 7.5 0 1 0 15 0 a7.5 7.5 0 1 0 -15 0zM1863.92 866.96 a7.5 7.5 0 1 0 15 0 a7.5 7.5 0 1 0 -15 0zM1863.92 791.96 a7.5 7.5 0 1 0 15 0 a7.5 7.5 0 1 0 -15 0z" fill="#03305d"></path><path d="M36.03 257.35L79.33 282.35L79.33 332.35L36.03 357.35L-7.27 332.35L-7.27 282.35zM79.33 332.35L122.64 357.35L122.64 407.35L79.33 432.35L36.03 407.35L36.03 357.35zM122.64 557.35L165.94 582.35L165.94 632.35L122.64 657.35L79.33 632.35L79.33 582.35zM165.94 632.35L209.24 657.35L209.24 707.35L165.94 732.35L122.64 707.35L122.64 657.35zM252.54 32.35L295.85 57.35L295.85 107.35L252.54 132.35L209.24 107.35L209.24 57.35zM209.24 557.35L252.54 582.35L252.54 632.35L209.24 657.35L165.94 632.35L165.94 582.35zM252.54 632.35L295.85 657.35L295.85 707.35L252.54 732.35L209.24 707.35L209.24 657.35zM339.15 182.35L382.45 207.35L382.45 257.35L339.15 282.35L295.85 257.35L295.85 207.35zM295.85 257.35L339.15 282.35L339.15 332.35L295.85 357.35L252.54 332.35L252.54 282.35zM425.75 182.35L469.06 207.35L469.06 257.35L425.75 282.35L382.45 257.35L382.45 207.35zM425.75 482.35L469.06 507.35L469.06 557.35L425.75 582.35L382.45 557.35L382.45 507.35zM382.45 557.35L425.75 582.35L425.75 632.35L382.45 657.35L339.15 632.35L339.15 582.35zM425.75 782.35L469.06 807.35L469.06 857.35L425.75 882.35L382.45 857.35L382.45 807.35zM512.36 32.35L555.66 57.35L555.66 107.35L512.36 132.35L469.06 107.35L469.06 57.35zM469.06 107.35L512.36 132.35L512.36 182.35L469.06 207.35L425.75 182.35L425.75 132.35zM469.06 557.35L512.36 582.35L512.36 632.35L469.06 657.35L425.75 632.35L425.75 582.35zM512.36 632.35L555.66 657.35L555.66 707.35L512.36 732.35L469.06 707.35L469.06 657.35zM512.36 782.35L555.66 807.35L555.66 857.35L512.36 882.35L469.06 857.35L469.06 807.35zM469.06 857.35L512.36 882.35L512.36 932.35L469.06 957.35L425.75 932.35L425.75 882.35zM598.96 32.35L642.26 57.35L642.26 107.35L598.96 132.35L555.66 107.35L555.66 57.35zM598.96 182.35L642.26 207.35L642.26 257.35L598.96 282.35L555.66 257.35L555.66 207.35zM555.66 1007.35L598.96 1032.35L598.96 1082.35L555.66 1107.35L512.36 1082.35L512.36 1032.35zM685.57 482.35L728.87 507.35L728.87 557.35L685.57 582.35L642.26 557.35L642.26 507.35zM642.26 707.35L685.57 732.35L685.57 782.35L642.26 807.35L598.96 782.35L598.96 732.35zM728.87 107.35L772.17 132.35L772.17 182.35L728.87 207.35L685.57 182.35L685.57 132.35zM772.17 182.35L815.48 207.35L815.48 257.35L772.17 282.35L728.87 257.35L728.87 207.35zM728.87 557.35L772.17 582.35L772.17 632.35L728.87 657.35L685.57 632.35L685.57 582.35zM728.87 707.35L772.17 732.35L772.17 782.35L728.87 807.35L685.57 782.35L685.57 732.35zM772.17 782.35L815.48 807.35L815.48 857.35L772.17 882.35L728.87 857.35L728.87 807.35zM858.78 32.35L902.08 57.35L902.08 107.35L858.78 132.35L815.48 107.35L815.48 57.35zM902.08 -42.65L945.38 -17.65L945.38 32.35L902.08 57.35L858.78 32.35L858.78 -17.65zM945.38 332.35L988.69 357.35L988.69 407.35L945.38 432.35L902.08 407.35L902.08 357.35zM902.08 557.35L945.38 582.35L945.38 632.35L902.08 657.35L858.78 632.35L858.78 582.35zM945.38 782.35L988.69 807.35L988.69 857.35L945.38 882.35L902.08 857.35L902.08 807.35zM1031.99 32.35L1075.29 57.35L1075.29 107.35L1031.99 132.35L988.69 107.35L988.69 57.35zM1031.99 182.35L1075.29 207.35L1075.29 257.35L1031.99 282.35L988.69 257.35L988.69 207.35zM1075.29 -42.65L1118.59 -17.65L1118.59 32.35L1075.29 57.35L1031.99 32.35L1031.99 -17.65zM1118.59 182.35L1161.89 207.35L1161.89 257.35L1118.59 282.35L1075.29 257.35L1075.29 207.35zM1075.29 707.35L1118.59 732.35L1118.59 782.35L1075.29 807.35L1031.99 782.35L1031.99 732.35zM1118.59 782.35L1161.89 807.35L1161.89 857.35L1118.59 882.35L1075.29 857.35L1075.29 807.35zM1075.29 857.35L1118.59 882.35L1118.59 932.35L1075.29 957.35L1031.99 932.35L1031.99 882.35zM1075.29 1007.35L1118.59 1032.35L1118.59 1082.35L1075.29 1107.35L1031.99 1082.35L1031.99 1032.35zM1205.2 782.35L1248.5 807.35L1248.5 857.35L1205.2 882.35L1161.89 857.35L1161.89 807.35zM1291.8 182.35L1335.11 207.35L1335.11 257.35L1291.8 282.35L1248.5 257.35L1248.5 207.35zM1248.5 257.35L1291.8 282.35L1291.8 332.35L1248.5 357.35L1205.2 332.35L1205.2 282.35zM1291.8 332.35L1335.11 357.35L1335.11 407.35L1291.8 432.35L1248.5 407.35L1248.5 357.35zM1291.8 782.35L1335.11 807.35L1335.11 857.35L1291.8 882.35L1248.5 857.35L1248.5 807.35zM1248.5 1007.35L1291.8 1032.35L1291.8 1082.35L1248.5 1107.35L1205.2 1082.35L1205.2 1032.35zM1335.11 257.35L1378.41 282.35L1378.41 332.35L1335.11 357.35L1291.8 332.35L1291.8 282.35zM1378.41 332.35L1421.71 357.35L1421.71 407.35L1378.41 432.35L1335.11 407.35L1335.11 357.35zM1335.11 407.35L1378.41 432.35L1378.41 482.35L1335.11 507.35L1291.8 482.35L1291.8 432.35zM1335.11 557.35L1378.41 582.35L1378.41 632.35L1335.11 657.35L1291.8 632.35L1291.8 582.35zM1378.41 932.35L1421.71 957.35L1421.71 1007.35L1378.41 1032.35L1335.11 1007.35L1335.11 957.35zM1465.01 182.35L1508.32 207.35L1508.32 257.35L1465.01 282.35L1421.71 257.35L1421.71 207.35zM1465.01 332.35L1508.32 357.35L1508.32 407.35L1465.01 432.35L1421.71 407.35L1421.71 357.35zM1421.71 707.35L1465.01 732.35L1465.01 782.35L1421.71 807.35L1378.41 782.35L1378.41 732.35zM1465.01 782.35L1508.32 807.35L1508.32 857.35L1465.01 882.35L1421.71 857.35L1421.71 807.35zM1508.32 257.35L1551.62 282.35L1551.62 332.35L1508.32 357.35L1465.01 332.35L1465.01 282.35zM1638.22 32.35L1681.53 57.35L1681.53 107.35L1638.22 132.35L1594.92 107.35L1594.92 57.35zM1594.92 107.35L1638.22 132.35L1638.22 182.35L1594.92 207.35L1551.62 182.35L1551.62 132.35zM1594.92 557.35L1638.22 582.35L1638.22 632.35L1594.92 657.35L1551.62 632.35L1551.62 582.35zM1638.22 632.35L1681.53 657.35L1681.53 707.35L1638.22 732.35L1594.92 707.35L1594.92 657.35zM1638.22 782.35L1681.53 807.35L1681.53 857.35L1638.22 882.35L1594.92 857.35L1594.92 807.35zM1724.83 182.35L1768.13 207.35L1768.13 257.35L1724.83 282.35L1681.53 257.35L1681.53 207.35zM1724.83 332.35L1768.13 357.35L1768.13 407.35L1724.83 432.35L1681.53 407.35L1681.53 357.35zM1681.53 557.35L1724.83 582.35L1724.83 632.35L1681.53 657.35L1638.22 632.35L1638.22 582.35zM1768.13 107.35L1811.43 132.35L1811.43 182.35L1768.13 207.35L1724.83 182.35L1724.83 132.35zM1811.43 632.35L1854.74 657.35L1854.74 707.35L1811.43 732.35L1768.13 707.35L1768.13 657.35zM1768.13 857.35L1811.43 882.35L1811.43 932.35L1768.13 957.35L1724.83 932.35L1724.83 882.35zM1768.13 1007.35L1811.43 1032.35L1811.43 1082.35L1768.13 1107.35L1724.83 1082.35L1724.83 1032.35zM1898.04 32.35L1941.34 57.35L1941.34 107.35L1898.04 132.35L1854.74 107.35L1854.74 57.35zM1854.74 557.35L1898.04 582.35L1898.04 632.35L1854.74 657.35L1811.43 632.35L1811.43 582.35zM1854.74 857.35L1898.04 882.35L1898.04 932.35L1854.74 957.35L1811.43 932.35L1811.43 882.35zM1941.34 257.35L1984.64 282.35L1984.64 332.35L1941.34 357.35L1898.04 332.35L1898.04 282.35zM1941.34 407.35L1984.64 432.35L1984.64 482.35L1941.34 507.35L1898.04 482.35L1898.04 432.35zM1984.64 632.35L2027.95 657.35L2027.95 707.35L1984.64 732.35L1941.34 707.35L1941.34 657.35zM1984.64 782.35L2027.95 807.35L2027.95 857.35L1984.64 882.35L1941.34 857.35L1941.34 807.35zM1984.64 932.35L2027.95 957.35L2027.95 1007.35L1984.64 1032.35L1941.34 1007.35L1941.34 957.35z" stroke="rgba(6, 80, 156, 0.93)" stroke-width="2"></path></g><defs><mask id="SvgjsMask1008"><rect width="1920" height="1080" fill="#ffffff"></rect></mask></defs></svg>